<svg width="41" height="41" viewBox="0 0 41 41" fill="none" xmlns="http://www.w3.org/2000/svg">
<path fill-rule="evenodd" clip-rule="evenodd" d="M3.46106 20.5C3.46106 20.1685 3.59276 19.8505 3.82718 19.6161C4.0616 19.3817 4.37954 19.25 4.71106 19.25H34.1936L26.3261 11.385C26.0913 11.1503 25.9595 10.8319 25.9595 10.5C25.9595 10.1681 26.0913 9.84971 26.3261 9.61499C26.5608 9.38028 26.8791 9.24841 27.2111 9.24841C27.543 9.24841 27.8613 9.38028 28.0961 9.61499L38.0961 19.615C38.2125 19.7311 38.3048 19.869 38.3678 20.0209C38.4309 20.1728 38.4633 20.3356 38.4633 20.5C38.4633 20.6644 38.4309 20.8272 38.3678 20.9791C38.3048 21.1309 38.2125 21.2689 38.0961 21.385L28.0961 31.385C27.8613 31.6197 27.543 31.7516 27.2111 31.7516C26.8791 31.7516 26.5608 31.6197 26.3261 31.385C26.0913 31.1503 25.9595 30.8319 25.9595 30.5C25.9595 30.1681 26.0913 29.8497 26.3261 29.615L34.1936 21.75H4.71106C4.37954 21.75 4.0616 21.6183 3.82718 21.3839C3.59276 21.1495 3.46106 20.8315 3.46106 20.5Z" fill="white"/>
</svg>
